<svg xmlns="http://www.w3.org/2000/svg" width="298" height="61" viewBox="0 0 298 61" fill="none"><path d="M280.687 60.1935H149.845C143.584 60.2414 139.308 55.0984 140.536 49.0072L150.334 0L288.319 0.00957733C294.963 -0.0670413 298.856 5.31542 297.84 10.8415L289.546 52.7998C288.77 57.0809 285.04 60.1935 280.687 60.1935Z" fill="#FD610E"/><path d="M17.6029 11.3496L0 50.4156H7.43041L11.3134 41.3745H30.8721L34.7455 50.4156H42.3965L24.7457 11.3496H17.6029ZM13.7678 35.676L21.1215 18.5805L28.4465 35.676H13.7678Z" fill="#333333"/><path d="M68.0434 35.6765C68.0434 37.6494 67.7078 39.3063 67.0367 40.6471C66.3655 41.9879 65.4163 42.9936 64.1891 43.664C62.9619 44.3344 61.5238 44.6696 59.8843 44.6696C57.6887 44.6696 55.9725 44.0088 54.7453 42.6871C53.5181 41.3654 52.9045 39.3829 52.9045 36.7396V20.6113H45.8672V37.6302C45.8672 40.6088 46.4137 43.0702 47.5163 45.0239C48.6188 46.9777 50.1337 48.4239 52.0704 49.3721C54.0071 50.3202 56.241 50.7991 58.7721 50.7991C61.0827 50.7991 63.2016 50.2819 65.1383 49.238C66.4326 48.5388 67.4969 47.6386 68.3789 46.5563V50.4064H75.0231V20.6113H68.0434V35.6765Z" fill="#333333"/><path d="M96.3174 45.052C94.9751 45.052 93.93 44.6594 93.1918 43.8836C92.4439 43.0983 92.0796 42.0065 92.0796 40.589V26.4146H100.124V20.831H92.0796V14.0215H85.1382V20.831H80.2197V26.4146H85.1382V40.8093C85.1382 44.0847 86.0298 46.5653 87.8227 48.2604C89.606 49.9556 92.1467 50.7984 95.4257 50.7984C96.6529 50.7984 97.861 50.6356 99.0594 50.3004C100.248 49.9652 101.274 49.4672 102.127 48.7968L100.114 43.8261C99.1073 44.6402 97.8418 45.052 96.3174 45.052Z" fill="#333333"/><path d="M134.169 27.5837C132.808 25.3139 130.928 23.5229 128.522 22.2013C126.115 20.8796 123.373 20.2188 120.277 20.2188C117.218 20.2188 114.505 20.8796 112.117 22.2013C109.73 23.5229 107.851 25.3139 106.47 27.5837C105.09 29.8535 104.399 32.4969 104.399 35.5042C104.399 38.4444 105.09 41.0686 106.47 43.3767C107.851 45.6849 109.74 47.495 112.137 48.8167C114.534 50.1383 117.247 50.7992 120.267 50.7992C123.325 50.7992 126.058 50.1383 128.484 48.8167C130.909 47.495 132.798 45.6945 134.15 43.4055C135.511 41.1165 136.192 38.4827 136.192 35.5138C136.202 32.4969 135.521 29.8535 134.169 27.5837ZM128.023 40.4461C127.256 41.8827 126.211 42.9745 124.869 43.7407C123.527 44.5069 122.002 44.8804 120.286 44.8804C118.647 44.8804 117.161 44.4973 115.818 43.7407C114.476 42.9745 113.412 41.8827 112.635 40.4461C111.849 39.0095 111.465 37.3718 111.465 35.5042C111.465 33.6079 111.859 31.9606 112.635 30.5623C113.421 29.164 114.476 28.0913 115.818 27.3251C117.161 26.5589 118.666 26.1759 120.344 26.1759C122.021 26.1759 123.527 26.5589 124.869 27.3251C126.211 28.0913 127.266 29.164 128.023 30.5623C128.79 31.9606 129.174 33.6079 129.174 35.5042C129.164 37.3718 128.781 39.0191 128.023 40.4461Z" fill="#333333"/><path d="M186.738 14.6325C184.149 12.5638 180.506 11.5391 175.818 11.5391H160.679L152.855 50.605H160.123L162.395 39.3325H172.021C175.818 39.3325 179.116 38.6908 181.906 37.4074C184.696 36.1241 186.853 34.2852 188.358 31.8813C189.864 29.487 190.621 26.6234 190.621 23.3192C190.621 19.5936 189.327 16.7012 186.738 14.6325ZM180.401 30.847C178.464 32.4081 175.722 33.1934 172.184 33.1934H163.622L166.71 17.6781H174.974C177.659 17.6781 179.71 18.2049 181.149 19.2392C182.587 20.2832 183.296 21.8826 183.296 24.0375C183.306 27.016 182.337 29.2859 180.401 30.847Z" fill="white"/><path d="M192.615 50.6057H199.605L207.869 9.19336H200.889L192.615 50.6057Z" fill="white"/><path d="M235.999 25.216C235.079 23.7315 233.852 22.5727 232.289 21.7778C230.506 20.8679 228.339 20.4082 225.808 20.4082C223.459 20.4082 221.263 20.8392 219.211 21.6916C217.16 22.5439 215.376 23.7698 213.852 25.3501C212.328 26.9304 211.139 28.7788 210.305 30.905C209.47 33.0216 209.049 35.3297 209.049 37.8294C209.049 40.6164 209.633 42.9916 210.813 44.9453C211.982 46.8991 213.564 48.3932 215.559 49.4371C217.553 50.481 219.758 50.9982 222.184 50.9982C225.348 50.9982 228.09 50.2416 230.4 48.7092C230.928 48.3644 231.426 47.9718 231.896 47.5504L231.292 50.6055H237.936L243.919 20.8009H236.881L235.999 25.216ZM229.24 43.6045C227.697 44.5527 225.932 45.0315 223.957 45.0315C221.465 45.0315 219.528 44.3611 218.147 43.0203C216.767 41.6795 216.076 39.8598 216.076 37.5516C216.076 35.3584 216.517 33.4238 217.39 31.7478C218.262 30.0717 219.48 28.7596 221.052 27.8115C222.615 26.8633 224.37 26.3845 226.306 26.3845C228.837 26.3845 230.793 27.0549 232.174 28.3957C233.555 29.7365 234.245 31.5562 234.245 33.8644C234.245 36.0576 233.794 37.9922 232.903 39.6682C232.001 41.3443 230.784 42.6563 229.24 43.6045Z" fill="white"/><path d="M279.575 26.6337C278.847 24.565 277.591 23.0134 275.807 21.9791C274.024 20.9351 271.838 20.418 269.268 20.418C266.699 20.418 264.34 20.916 262.202 21.9216C261.014 22.4771 259.959 23.2241 259.01 24.1148L259.662 20.8011H253.017L247.092 50.6057H254.072L257.14 35.1479C257.773 32.246 258.933 30.0911 260.601 28.6736C262.279 27.2562 264.398 26.557 266.967 26.557C269.422 26.557 271.119 27.237 272.049 28.597C272.979 29.957 273.199 31.8437 272.72 34.2572L269.422 50.6057H276.459L279.757 34.0848C280.361 31.1829 280.304 28.7024 279.575 26.6337Z" fill="white"/></svg>